<svg width="11" height="10" viewBox="0 0 11 10" fill="none" xmlns="http://www.w3.org/2000/svg">
<path d="M9.98627 2.77326C9.84026 1.16617 8.70275 0.000192383 7.27919 0.000192383C6.33078 0.000192383 5.46241 0.51056 4.97378 1.32853C4.48957 0.499979 3.65679 0 2.72358 0C1.30021 0 0.16251 1.16598 0.016691 2.77307C0.00514856 2.84405 -0.0421754 3.21764 0.10172 3.82689C0.309099 4.70566 0.78811 5.50497 1.48662 6.13788L4.97147 9.30031L8.51615 6.13807C9.21466 5.50497 9.69367 4.70585 9.90105 3.82689C10.0449 3.21784 9.99762 2.84425 9.98627 2.77326ZM9.5265 3.73878C9.3372 4.54137 8.8984 5.27258 8.25875 5.85201L4.97378 8.78282L1.74517 5.85278C1.10437 5.2722 0.66576 4.54118 0.476272 3.73859C0.340071 3.16205 0.396052 2.83636 0.396244 2.83424L0.39913 2.81481C0.524173 1.40683 1.50162 0.384748 2.72358 0.384748C3.62524 0.384748 4.41897 0.938784 4.79564 1.83044L4.97282 2.25039L5.14999 1.83044C5.5207 0.952442 6.35637 0.38494 7.27938 0.38494C8.50115 0.38494 9.47879 1.40702 9.60633 2.83328C9.60672 2.83636 9.6627 3.16224 9.5265 3.73878Z" fill="#E12626"/>
</svg>
