<svg width="280" height="297" viewBox="0 0 280 297" fill="none" xmlns="http://www.w3.org/2000/svg">
<path d="M236.818 40.13C236.918 40.44 233.398 41.95 227.418 43.5C225.918 43.88 224.278 44.28 222.488 44.62C220.708 45 218.788 45.29 216.768 45.61C212.718 46.17 208.238 46.57 203.518 46.67C198.798 46.74 194.298 46.51 190.228 46.11C188.198 45.87 186.268 45.66 184.478 45.34C182.678 45.07 181.018 44.73 179.518 44.41C173.478 43.09 169.908 41.71 169.998 41.4C170.098 41.02 173.818 41.76 179.838 42.59C181.348 42.79 182.988 43.02 184.768 43.19C186.538 43.41 188.438 43.54 190.438 43.71C194.438 43.97 198.848 44.13 203.468 44.06C208.088 43.96 212.488 43.63 216.478 43.22C218.468 42.97 220.368 42.77 222.128 42.49C223.898 42.25 225.538 41.96 227.038 41.7C233.008 40.63 236.698 39.75 236.818 40.13Z" fill="#BECBCA"/>
<path d="M235.058 58.65C235.058 58.65 252.058 56.65 252.058 71.65C252.058 86.65 233.058 85.65 233.058 85.65L231.058 91.65C231.058 91.65 257.808 96.7 259.058 71.65C260.058 51.65 236.058 52.65 236.058 52.65L235.058 58.65Z" fill="#BECBCA"/>
<path d="M167.058 39.65L179.058 130.65C179.058 130.65 183.958 149.11 202.058 149.65C221.658 150.23 228.508 141.82 230.058 120.65C231.598 99.61 240.058 38.65 240.058 38.65C240.058 38.65 201.058 20.65 167.058 39.65Z" fill="#BECBCA"/>
<path d="M196.058 147.65V151.65C196.058 151.65 177.058 152.65 183.058 157.65C189.058 162.65 226.058 162.65 228.058 156.65C228.058 156.65 228.058 151.65 214.058 151.65V147.65H196.058Z" fill="#BECBCA"/>
<path d="M175.058 79.65L179.588 121.48C180.238 127.47 182.418 133.24 186.138 138.02C189.978 142.96 195.908 147.65 204.568 147.65C226.958 147.65 227.968 123.65 227.968 123.65L233.058 79.65C233.058 79.65 196.418 86.65 175.058 79.65Z" fill="#A96750"/>
<path d="M175.058 80.65L170.058 41.65C170.058 41.65 205.058 26.65 237.058 41.65L233.058 79.65C233.058 79.65 211.058 87.65 175.058 80.65Z" fill="#F9EADB"/>
<path d="M170.388 43.79C169.288 40.04 170.918 35.87 173.738 33.17C176.558 30.47 180.388 29.06 184.218 28.3C181.468 28.55 179.788 25.12 180.048 22.38C180.308 19.65 181.678 17.04 183.788 15.28C190.348 9.81 201.558 13.5 207.798 7.67C209.888 5.72 211.078 2.85 210.978 0C214.028 1.67 217.008 3.45 219.928 5.34C221.568 6.4 223.208 7.51 224.448 9.01C227.928 13.2 227.528 19.55 225.158 24.46C225.608 23.44 226.878 23 227.968 23.19C229.058 23.37 230.008 24.05 230.868 24.74C233.658 27 236.098 29.84 237.248 33.24C238.398 36.64 238.108 40.65 235.898 43.49C234.568 45.2 232.668 46.37 230.718 47.31C224.888 50.1 218.358 51.01 211.918 51.61C207.408 52.03 202.888 52.3 198.368 52.44C194.498 52.56 190.568 52.56 186.798 51.66C180.688 50.19 175.418 46.44 170.308 42.76" fill="#F9EADB"/>
<path d="M236.818 40.13C236.918 40.44 233.398 41.95 227.418 43.5C225.918 43.88 224.278 44.28 222.488 44.62C220.708 45 218.788 45.29 216.768 45.61C212.718 46.17 208.238 46.57 203.518 46.67C198.798 46.74 194.298 46.51 190.228 46.11C188.198 45.87 186.268 45.66 184.478 45.34C182.678 45.07 181.018 44.73 179.518 44.41C173.478 43.09 169.908 41.71 169.998 41.4C170.098 41.02 173.818 41.76 179.838 42.59C181.348 42.79 182.988 43.02 184.768 43.19C186.538 43.41 188.438 43.54 190.438 43.71C194.438 43.97 198.848 44.13 203.468 44.06C208.088 43.96 212.488 43.63 216.478 43.22C218.468 42.97 220.368 42.77 222.128 42.49C223.898 42.25 225.538 41.96 227.038 41.7C233.008 40.63 236.698 39.75 236.818 40.13Z" fill="#BECBCA"/>
<path d="M224.488 110.97C224.288 110.95 224.288 109.82 224.038 107.83C223.798 105.83 223.148 103.02 222.308 99.44C221.918 97.65 221.498 95.64 221.368 93.39C221.228 91.16 221.438 88.62 222.378 86.2C223.288 83.78 224.718 81.55 226.158 79.36C226.878 78.26 227.608 77.16 228.268 76.04C228.588 75.48 228.948 74.88 229.148 74.39C229.368 73.87 229.438 73.49 229.358 73.1C229.258 72.38 228.458 71.65 227.378 71.17C226.848 70.93 226.278 70.73 225.698 70.58C225.398 70.5 225.128 70.44 224.798 70.38C224.458 70.31 224.118 70.24 223.778 70.16C222.428 69.82 221.038 69.4 219.768 68.43C219.148 67.95 218.568 67.27 218.248 66.47C217.918 65.68 217.848 64.79 217.958 64.06C218.058 63.32 218.238 62.72 218.418 62.14C218.588 61.55 218.778 60.98 218.998 60.42C219.408 59.3 219.898 58.25 220.408 57.26C221.448 55.28 222.638 53.58 223.868 52.15C226.328 49.28 228.838 47.5 230.648 46.48C232.478 45.47 233.588 45.16 233.658 45.3C233.748 45.48 232.798 46.1 231.208 47.33C229.638 48.57 227.438 50.48 225.308 53.31C224.248 54.72 223.218 56.37 222.348 58.24C221.918 59.18 221.498 60.16 221.158 61.2C220.978 61.72 220.818 62.25 220.678 62.79C220.518 63.33 220.388 63.89 220.338 64.35C220.248 65.27 220.538 65.89 221.288 66.47C222.048 67.04 223.178 67.42 224.368 67.69L225.288 67.88C225.608 67.94 225.988 68.02 226.338 68.1C227.048 68.28 227.758 68.51 228.468 68.83C229.168 69.15 229.888 69.56 230.538 70.17C231.178 70.77 231.758 71.65 231.928 72.66C232.128 73.66 231.868 74.68 231.548 75.42C231.218 76.19 230.848 76.76 230.498 77.38C229.778 78.58 229.018 79.71 228.278 80.8C226.808 82.97 225.448 85.01 224.608 87.1C223.738 89.17 223.478 91.29 223.518 93.34C223.548 95.39 223.838 97.33 224.108 99.12C224.698 102.7 225.108 105.71 225.038 107.8C224.988 109.87 224.638 110.99 224.488 110.97Z" fill="#BECBCA"/>
<path d="M189.248 79.07C188.868 79 188.728 78.28 188.128 77.55C187.568 76.81 186.458 76.02 185.398 76.19C184.278 76.32 183.278 77.31 182.928 78.1C182.818 78.3 182.748 78.5 182.688 78.69L182.658 78.76C182.648 78.75 182.628 78.67 182.608 78.66C182.568 78.61 182.538 78.61 182.518 78.61C182.458 78.63 182.518 78.64 182.268 78.65C182.208 78.66 182.058 78.72 181.988 78.82C181.908 78.93 181.918 79.01 181.918 79.04C181.928 79.08 181.978 79.19 182.028 79.22C182.148 79.28 182.148 79.2 182.138 79.16C182.118 79.07 182.058 78.98 182.058 78.89C182.058 78.8 182.098 78.7 182.248 78.65C182.318 78.63 182.438 78.58 182.638 78.75C182.738 78.83 182.798 79.01 182.798 79.13C182.798 79.19 182.798 79.32 182.698 79.45C182.608 79.59 182.418 79.66 182.308 79.67C181.888 79.68 181.788 79.58 181.588 79.45C181.498 79.38 181.408 79.28 181.328 79.13C181.288 79.06 181.258 78.94 181.248 78.87L181.218 78.76C181.138 78.47 181.088 78.12 181.108 77.74C181.138 76.97 181.458 76.06 182.108 75.26C182.758 74.48 183.768 73.77 185.058 73.61C186.358 73.44 187.588 73.93 188.358 74.6C189.158 75.26 189.608 76.1 189.798 76.82C189.998 77.55 189.928 78.17 189.768 78.56C189.628 78.93 189.418 79.1 189.248 79.07Z" fill="#442C41"/>
<path d="M212.248 78.07C211.868 78 211.728 77.28 211.128 76.55C210.568 75.81 209.458 75.02 208.398 75.19C207.278 75.32 206.278 76.31 205.928 77.1C205.818 77.3 205.748 77.5 205.688 77.69L205.658 77.76C205.648 77.75 205.628 77.67 205.608 77.66C205.568 77.61 205.538 77.61 205.518 77.61C205.458 77.63 205.518 77.64 205.268 77.65C205.208 77.66 205.058 77.72 204.988 77.82C204.908 77.93 204.918 78.01 204.918 78.04C204.928 78.08 204.978 78.19 205.028 78.22C205.148 78.28 205.148 78.2 205.138 78.16C205.118 78.07 205.058 77.98 205.058 77.89C205.058 77.8 205.098 77.7 205.248 77.65C205.318 77.63 205.438 77.58 205.638 77.75C205.738 77.83 205.798 78.01 205.798 78.13C205.798 78.19 205.798 78.32 205.698 78.45C205.608 78.59 205.418 78.66 205.308 78.67C204.888 78.68 204.788 78.58 204.588 78.45C204.498 78.38 204.408 78.28 204.328 78.13C204.288 78.06 204.258 77.94 204.248 77.87L204.218 77.76C204.138 77.47 204.088 77.12 204.108 76.74C204.138 75.97 204.458 75.06 205.108 74.26C205.758 73.48 206.768 72.77 208.058 72.61C209.358 72.44 210.588 72.93 211.358 73.6C212.158 74.26 212.608 75.1 212.798 75.82C212.998 76.55 212.928 77.17 212.768 77.56C212.628 77.93 212.418 78.1 212.248 78.07Z" fill="#442C41"/>
<path d="M196.458 88.09C195.098 87.33 193.648 86.6 192.088 86.52C190.528 86.44 188.828 87.17 188.228 88.61C187.748 89.77 188.098 91.16 188.848 92.17C189.608 93.18 190.718 93.86 191.858 94.38C193.948 95.35 196.238 95.88 198.548 95.95C200.508 96.01 202.538 95.7 204.228 94.68C205.908 93.66 207.188 91.85 207.198 89.88C207.208 87.91 205.708 85.95 203.758 85.75C201.238 85.5 199.118 87.97 196.588 87.91C196.278 87.9 195.858 87.67 196.008 87.39" fill="#C17E6C"/>
<path d="M177.788 92.73C177.888 93.03 176.278 93.94 173.368 94.41C171.918 94.68 170.158 94.69 168.208 94.54C166.268 94.34 164.158 93.86 162.048 93.05C159.938 92.25 158.058 91.15 156.508 89.98C154.928 88.83 153.708 87.54 152.778 86.41C152.348 85.81 151.928 85.3 151.638 84.79C151.348 84.28 151.108 83.84 150.938 83.47C150.838 83.27 150.808 83.16 150.808 83.11C150.808 83.09 150.848 83.09 150.888 83.06C150.888 83.05 150.918 83.04 150.968 82.97C151.008 82.91 150.998 82.84 150.988 82.83C150.918 82.79 150.958 82.88 150.858 82.89C150.768 82.99 150.898 82.95 150.918 82.96C150.928 82.96 151.078 83.02 150.888 83.15C150.678 83.16 150.578 83.12 150.468 82.88C150.448 82.82 150.448 82.69 150.528 82.58C150.618 82.47 150.708 82.44 150.768 82.41C150.928 82.35 151.118 82.39 151.238 82.45C151.498 82.57 151.648 82.77 151.788 82.88C152.078 83.14 152.418 83.48 152.798 83.87C153.178 84.26 153.658 84.66 154.138 85.13C155.158 86.02 156.388 87.05 157.898 87.99C159.378 88.95 161.098 89.88 163.008 90.6C164.908 91.33 166.798 91.83 168.538 92.14C170.288 92.39 171.888 92.58 173.248 92.55C175.948 92.6 177.678 92.35 177.788 92.73Z" fill="#442C41"/>
<path d="M224.968 21.91C225.118 21.91 225.318 22.58 224.768 23.59C224.228 24.59 222.918 25.6 221.348 26.39C218.238 28.08 213.628 29.98 208.288 31.02C202.948 32.08 197.978 32.15 194.448 31.77C190.908 31.4 188.808 30.72 188.858 30.39C188.948 29.62 197.538 30.57 207.778 28.47C212.888 27.47 217.368 25.94 220.578 24.72C222.208 24.15 223.328 23.57 223.958 22.98C224.588 22.4 224.768 21.88 224.968 21.91Z" fill="#CC9D64"/>
<path d="M209.678 50.09C209.778 50.02 210.238 50.4 210.288 51.42C210.308 52.4 209.748 53.91 208.108 54.88C206.438 55.82 204.168 55.69 202.078 55.16C199.978 54.66 197.678 53.9 195.328 52.83L196.608 50.68C197.458 51.3 198.278 52.03 198.958 53.04C199.288 53.55 199.598 54.15 199.738 54.86C199.888 55.57 199.828 56.42 199.508 57.14C199.018 58.32 197.918 59.04 196.978 59.34C196.018 59.66 195.068 59.72 194.188 59.65C192.488 59.52 190.908 59.01 189.548 58.34C186.838 56.95 184.948 55.09 183.488 53.5C182.768 52.7 182.158 51.94 181.638 51.27C181.108 50.58 180.678 49.9 180.468 49.26C180.238 48.63 180.258 48.06 180.358 47.72C180.468 47.37 180.618 47.24 180.698 47.27C180.888 47.33 180.778 47.97 181.378 48.83C181.668 49.26 182.118 49.75 182.718 50.3C183.328 50.87 184.018 51.51 184.788 52.2C186.338 53.55 188.228 55.12 190.568 56.17C191.738 56.68 193.008 57.03 194.348 57.1C195.598 57.2 196.918 56.76 197.118 56.09C197.318 55.67 197.208 55.11 196.788 54.44C196.378 53.8 195.758 53.19 195.108 52.7L195.068 52.67C194.518 52.25 194.408 51.46 194.838 50.91C195.208 50.43 195.868 50.29 196.388 50.55C198.568 51.62 200.698 52.45 202.638 53.07C204.548 53.71 206.218 53.89 207.388 53.45C208.558 52.99 209.218 52.01 209.408 51.33C209.638 50.62 209.518 50.15 209.678 50.09Z" fill="#CC9D64"/>
<path d="M210.298 0.850017C210.338 0.710017 211.328 0.760018 212.848 1.64002C213.598 2.09002 214.458 2.76002 215.248 3.76002C216.028 4.75002 216.738 6.11002 216.988 7.75002C217.228 9.37002 217.058 11.26 216.148 13.04C215.258 14.83 213.508 16.36 211.458 17.12C209.398 17.91 207.108 18.09 204.828 17.79C202.568 17.49 200.378 16.77 198.248 16.04C196.108 15.3 194.108 14.61 192.148 14.28C190.198 13.94 188.298 13.94 186.658 14.43C185.028 14.9 183.678 15.9 182.708 17.1C181.738 18.3 181.158 19.67 180.958 20.97C180.558 23.61 181.498 25.82 182.308 27.11C183.148 28.44 183.858 29.04 183.728 29.2C183.648 29.33 182.708 29.01 181.498 27.72C180.918 27.08 180.268 26.19 179.798 25.01C179.318 23.85 178.998 22.38 179.118 20.75C179.238 19.12 179.838 17.36 180.978 15.79C182.098 14.23 183.798 12.83 185.918 12.14C188.008 11.43 190.328 11.41 192.548 11.75C194.788 12.09 196.968 12.84 199.078 13.57C201.198 14.3 203.208 14.97 205.158 15.26C207.078 15.54 208.988 15.42 210.598 14.86C212.218 14.32 213.488 13.28 214.218 12.01C214.968 10.73 215.218 9.26002 215.128 7.96002C215.038 6.66002 214.588 5.51002 214.028 4.60002C213.468 3.68002 212.808 2.98002 212.228 2.46002C211.068 1.42002 210.218 1.04002 210.298 0.850017Z" fill="#CC9D64"/>
<path d="M204.548 139.56C204.618 139.61 204.588 139.83 204.338 140.14C204.098 140.45 203.598 140.83 202.878 141.04C202.168 141.25 201.248 141.31 200.258 141.19C199.278 141.09 198.158 140.87 196.968 140.47C194.608 139.67 191.908 138.11 189.698 135.55C187.428 132.98 186.098 129.45 185.148 125.93C183.218 118.94 181.728 112.49 181.168 107.71C180.578 102.94 180.798 99.95 181.138 99.94C181.518 99.92 181.958 102.82 182.988 107.4C183.998 111.99 185.738 118.26 187.658 125.23C188.598 128.67 189.728 131.77 191.558 134.02C193.358 136.31 195.618 137.83 197.648 138.76C198.668 139.22 199.638 139.54 200.518 139.76C201.378 139.99 202.118 140.08 202.708 140.05C203.888 139.99 204.398 139.43 204.548 139.56Z" fill="white"/>
<path d="M177.748 58.61C178.478 58.62 178.978 66.06 179.528 75.21C180.058 84.36 180.428 91.81 179.708 91.91C179.008 92 177.468 84.62 176.928 75.37C176.378 66.11 177.048 58.6 177.748 58.61Z" fill="white"/>
<path d="M195.088 153.66C195.028 154.39 192.338 154.75 189.228 155.53C188.458 155.73 187.728 155.92 187.018 156.1C186.358 156.27 186.048 156.39 185.868 156.51C185.768 156.59 185.688 156.67 185.628 156.75C185.598 156.79 185.568 156.83 185.558 156.87C185.558 156.91 185.518 156.87 185.488 156.88C185.468 156.88 185.448 156.9 185.438 156.91C185.408 156.99 185.388 157.06 185.358 157.16C185.358 157.28 185.488 157.26 185.568 157.29C185.638 157.3 185.768 157.4 185.628 157.61C185.458 157.81 185.158 157.85 184.868 157.75C184.788 157.72 184.718 157.68 184.628 157.62C184.548 157.56 184.458 157.44 184.418 157.4C184.318 157.27 184.228 157.11 184.168 156.93C184.048 156.56 184.058 156.12 184.198 155.7C184.498 154.76 185.438 154.17 186.168 153.85C186.888 153.51 187.708 153.22 188.588 153C190.358 152.56 192.038 152.54 193.218 152.73C194.408 152.92 195.108 153.3 195.088 153.66Z" fill="white"/>
<path d="M198.068 151.45C197.368 151.62 196.698 151.35 196.578 150.84C196.448 150.33 196.918 149.78 197.608 149.6C198.308 149.43 198.978 149.7 199.098 150.21C199.228 150.73 198.768 151.28 198.068 151.45Z" fill="white"/>
<path d="M206.459 293.253C206.269 292.953 206.599 292.353 207.289 291.633C207.459 291.453 207.659 291.263 207.869 291.073C208.119 290.883 208.289 290.663 208.139 290.773C208.029 290.913 208.079 290.853 208.029 290.503C207.999 290.153 207.969 289.793 207.949 289.433C207.879 287.963 207.959 286.613 208.149 285.643C208.199 285.403 208.249 285.173 208.309 284.983C208.379 284.823 208.429 284.793 208.479 284.703C208.519 284.633 208.619 284.613 208.659 284.533C208.689 284.443 208.619 284.363 208.599 284.283C208.579 284.203 208.589 284.083 208.759 284.023C208.939 283.953 209.219 284.083 209.389 284.253C209.559 284.403 209.699 284.703 209.769 284.923C209.849 285.113 209.919 285.323 209.989 285.563C210.269 286.513 210.479 287.843 210.559 289.323C210.579 289.693 210.589 290.053 210.589 290.403C210.579 290.743 210.639 291.393 210.179 292.083C209.949 292.413 209.689 292.583 209.499 292.693C209.299 292.803 209.179 292.853 209.049 292.913C208.789 293.023 208.529 293.123 208.299 293.203C207.339 293.513 206.659 293.563 206.459 293.253Z" fill="#442C41"/>
<path d="M218.429 296.093C217.789 295.743 218.359 293.523 217.809 291.063C217.539 289.803 217.139 288.343 217.259 287.193C217.349 286.023 217.879 285.403 218.219 285.503C218.579 285.593 218.749 286.183 219.089 286.973C219.399 287.783 219.989 288.883 220.369 290.543C220.729 292.253 220.389 293.863 219.879 294.843C219.349 295.833 218.739 296.253 218.429 296.093Z" fill="#442C41"/>
<path d="M276.249 246.453C267.119 233.483 253.669 244.053 253.669 244.053L254.149 229.163C254.149 229.163 253.269 219.763 219.559 218.113C199.859 217.153 189.979 222.563 185.819 224.843C183.549 226.083 182.019 228.343 181.709 230.923C180.529 240.683 178.219 273.843 199.869 282.013C199.869 282.013 217.489 288.903 231.519 283.883C234.199 282.923 236.619 281.373 238.689 279.433C241.999 276.343 247.939 270.413 250.309 265.673C250.309 265.673 261.839 276.243 272.889 266.633C272.889 266.623 285.379 259.423 276.249 246.453ZM264.719 263.263C259.919 264.703 255.589 261.343 255.589 254.613C255.589 247.883 265.679 247.883 265.679 247.883C265.679 247.883 270.959 248.363 271.439 254.613C271.929 260.863 269.529 261.823 264.719 263.263Z" fill="#EDEDED"/>
<path d="M249.829 229.633C249.829 233.613 235.529 236.843 217.879 236.843C200.229 236.843 185.929 233.613 185.929 229.633C185.929 225.653 200.229 222.423 217.879 222.423C235.529 222.423 249.829 225.653 249.829 229.633Z" fill="#382717"/>
<path d="M186.889 232.283C186.739 231.183 187.379 230.103 188.249 229.403C189.119 228.703 190.199 228.333 191.259 227.983C196.539 226.183 202.279 224.393 207.589 226.123C210.779 227.153 213.799 229.443 217.109 228.903C219.249 228.553 221.009 227.063 223.039 226.313C224.769 225.683 226.639 225.593 228.479 225.603C231.359 225.603 234.399 225.863 236.759 227.503C237.769 228.203 238.619 229.153 239.759 229.633C241.159 230.223 242.759 230.023 244.249 230.323C245.339 230.543 246.389 231.023 247.509 231.023C248.619 231.023 249.869 230.273 249.849 229.163C249.829 228.263 249.019 227.613 248.249 227.133C243.769 224.343 238.409 223.323 233.149 222.773C223.519 221.753 213.799 222.133 204.119 222.513C202.139 222.593 200.149 222.673 198.229 223.113C196.289 223.563 194.459 224.363 192.639 225.173C191.299 225.763 189.959 226.353 188.619 226.953C187.689 227.363 186.709 227.823 186.189 228.693C185.679 229.563 185.969 230.953 186.959 231.173" fill="#D38717"/>
<path d="M199.769 255.493C200.874 255.493 201.769 254.598 201.769 253.493C201.769 252.388 200.874 251.493 199.769 251.493C198.665 251.493 197.769 252.388 197.769 253.493C197.769 254.598 198.665 255.493 199.769 255.493Z" fill="#442C41"/>
<path d="M225.269 255.993C226.374 255.993 227.269 255.098 227.269 253.993C227.269 252.888 226.374 251.993 225.269 251.993C224.165 251.993 223.269 252.888 223.269 253.993C223.269 255.098 224.165 255.993 225.269 255.993Z" fill="#442C41"/>
<path d="M215.979 256.333C216.129 256.253 216.389 256.343 216.659 256.683C216.929 257.013 217.189 257.593 217.239 258.373C217.279 259.143 217.099 260.123 216.459 261.033C215.819 261.963 214.689 262.653 213.449 262.833C212.209 263.023 210.929 262.693 210.039 261.993C209.159 261.313 208.699 260.423 208.519 259.683C208.339 258.923 208.419 258.293 208.579 257.903C208.739 257.503 208.959 257.343 209.129 257.373C209.499 257.443 209.629 258.203 210.219 258.983C210.509 259.373 210.909 259.773 211.379 260.013C211.839 260.253 212.429 260.353 213.059 260.263C213.689 260.163 214.219 259.893 214.589 259.533C214.979 259.163 215.239 258.663 215.399 258.213C215.739 257.273 215.649 256.513 215.979 256.333Z" fill="#442C41"/>
<path d="M208.389 274.333C208.359 274.503 207.649 274.553 206.399 274.453C205.149 274.343 203.349 274.113 201.149 273.513C198.969 272.903 196.309 271.903 193.879 269.823C191.439 267.753 189.679 264.693 188.389 261.493C185.759 255.063 184.959 248.743 185.029 244.253C185.089 239.733 185.839 237.033 186.159 237.073C186.549 237.113 186.459 239.853 186.869 244.173C187.259 248.493 188.309 254.423 190.799 260.513C192.029 263.543 193.519 266.223 195.489 268.043C197.439 269.883 199.739 270.983 201.729 271.773C203.729 272.553 205.439 273.053 206.609 273.463C207.779 273.863 208.419 274.153 208.389 274.333Z" fill="white"/>
<path d="M208.059 229.163C207.849 229.883 204.049 229.333 199.489 229.833C194.919 230.273 191.309 231.593 190.959 230.933C190.799 230.623 191.539 229.863 193.009 229.063C194.469 228.273 196.679 227.503 199.219 227.243C201.759 226.983 204.079 227.273 205.669 227.753C207.269 228.233 208.149 228.833 208.059 229.163Z" fill="#AF8868"/>
<path d="M104.956 280.019C104.339 280.373 102.337 278.072 100.811 274.719C99.2759 271.367 98.8593 268.343 99.5297 268.115C100.219 267.874 101.702 270.407 103.184 273.635C104.648 276.874 105.583 279.654 104.956 280.019Z" fill="#442C41"/>
<path d="M125.562 275.158C124.906 275.436 123.221 272.893 122.14 269.363C121.059 265.834 121.033 262.792 121.732 262.65C122.441 262.508 123.589 265.206 124.636 268.598C125.673 271.991 126.237 274.879 125.562 275.158Z" fill="#442C41"/>
<path d="M50.2688 179.456L85.2528 271.349C103.226 271.66 119.24 267.024 133.274 257.421L112.981 162.312L50.2688 179.456Z" fill="#EFE3D3"/>
<path d="M96.6066 172.03C96.9455 172.499 97.1909 173.037 97.5666 173.471C97.9422 173.905 98.5297 174.248 99.0878 174.101C99.3822 174.031 99.6337 173.835 99.8773 173.659C100.523 173.192 101.226 172.789 101.957 172.464C102.534 172.204 103.229 172.013 103.765 172.351C104.13 172.575 104.313 172.999 104.551 173.357C105.349 174.593 106.963 175.244 108.395 174.897C109.2 174.705 109.987 174.143 110.106 173.327C110.159 172.96 110.072 172.597 109.995 172.233C109.639 170.701 109.273 169.17 108.917 167.638C108.809 167.167 108.602 166.615 108.123 166.552C107.849 166.52 107.592 166.667 107.356 166.811C103.999 168.9 100.377 170.553 96.6062 171.729" fill="#BF855F"/>
<path d="M47.5311 180.808L45.5866 174.11C45.4807 173.759 45.4921 173.376 45.5982 173.033L45.6656 172.805C47.0364 168.475 49.9941 164.829 53.9746 162.647C58.9166 159.935 66.7024 156.423 77.206 153.942C87.5911 151.484 95.6813 150.283 100.969 149.697C105.373 149.211 109.782 150.574 113.177 153.427C113.462 153.659 113.665 153.98 113.771 154.331L115.733 161.098C115.964 161.889 115.648 162.745 114.95 163.198C95.7412 175.495 73.6006 181.174 49.3975 182.167C48.5458 182.193 47.7749 181.628 47.5311 180.808Z" fill="#763B2A"/>
<path d="M104.15 153.416C104.051 153.436 103.909 153.119 103.244 153.005C102.597 152.869 101.57 152.853 100.235 152.968C97.5735 153.187 93.7225 153.868 89.0313 154.987C84.3411 156.115 78.7887 157.662 72.7543 159.71C69.7426 160.739 66.5927 161.892 63.4342 163.257C61.8549 163.94 60.2607 164.674 58.7364 165.502C57.9747 165.921 57.225 166.358 56.5599 166.838C56.2427 167.081 55.9167 167.335 55.6891 167.569C55.5798 167.681 55.5103 167.788 55.4656 167.843C55.4487 167.875 55.5212 167.797 55.4542 167.533C55.3673 167.27 55.2628 167.23 55.2957 167.257C55.3584 167.281 55.4739 167.33 55.6292 167.374C55.9387 167.453 56.3547 167.492 56.7498 167.522C57.5687 167.57 58.4404 167.542 59.309 167.484C61.0461 167.369 62.7812 167.133 64.4834 166.87C67.8858 166.324 71.1615 165.621 74.2622 164.875C80.4634 163.382 85.9838 161.718 90.5402 160.161C95.1055 158.593 98.7146 157.112 101.081 155.867C102.266 155.255 103.123 154.686 103.6 154.235C104.098 153.793 104.053 153.456 104.15 153.416C104.179 153.403 104.267 153.484 104.29 153.703C104.323 153.931 104.213 154.234 104.005 154.566C103.58 155.232 102.75 155.97 101.602 156.739C99.2972 158.299 95.7282 160.078 91.1771 161.886C86.6261 163.693 81.1059 165.559 74.8402 167.208C71.7068 168.028 68.3873 168.796 64.8895 169.392C63.1406 169.689 61.3468 169.941 59.4803 170.07C58.5421 170.135 57.5908 170.171 56.5898 170.111C56.0832 170.072 55.5668 170.034 54.9885 169.881C54.6998 169.81 54.3773 169.702 54.0268 169.516C53.6733 169.301 53.1863 168.958 52.9526 168.238C52.7676 167.503 52.9948 166.967 53.1774 166.587C53.374 166.246 53.5896 165.993 53.7983 165.77C54.2167 165.336 54.6183 165.034 55.0289 164.721C55.8441 164.136 56.6704 163.66 57.4997 163.215C59.1484 162.324 60.8022 161.584 62.4312 160.896C65.7003 159.53 68.9128 158.401 71.9992 157.415C78.173 155.453 83.8331 154.076 88.646 153.166C93.4599 152.267 97.4276 151.845 100.211 151.935C101.602 151.975 102.696 152.156 103.412 152.485C103.762 152.661 104.023 152.856 104.115 153.068C104.208 153.289 104.18 153.413 104.15 153.416Z" fill="#5B3027"/>
<path d="M103.657 153.807C103.054 153.014 101.892 152.951 100.895 153.032C98.7715 153.207 96.6856 153.749 94.7543 154.628C93.6206 155.145 92.501 155.801 91.8227 156.845C91.7273 156.995 91.634 157.166 91.6521 157.345C91.6874 157.693 92.0966 157.863 92.436 157.939C96.4063 158.833 100.667 157.538 103.883 155.051C104.218 154.786 104.585 154.437 104.532 154.01C104.462 153.424 103.71 153.239 103.116 153.229C101.404 153.201 99.6823 153.466 98.0591 154.012" fill="#5B3027"/>
<path d="M113.767 156.372C113.895 156.45 113.536 157.471 112.172 158.785C110.829 160.117 108.424 161.476 105.477 162.75C99.5955 165.416 91.2203 168.666 81.6152 171.086C72.022 173.524 63.081 174.661 56.6116 174.893C50.1342 175.147 46.1306 174.718 46.1382 174.396C46.1387 174.004 50.1166 173.782 56.466 173.059C62.8175 172.355 71.5412 170.96 80.9782 168.567C90.4272 166.193 98.764 163.258 104.782 161.051C107.821 159.99 110.112 158.994 111.54 158.005C112.969 157.036 113.604 156.258 113.767 156.372Z" fill="#5B3027"/>
<path d="M47.5844 175.576C48.2129 175.231 49.2086 175.834 49.811 176.919C50.4133 178.004 50.3799 179.163 49.7525 179.518C49.124 179.863 48.1282 179.26 47.5259 178.175C46.9236 177.09 46.957 175.931 47.5844 175.576Z" fill="#A56B60"/>
<path d="M72.4261 156.567C72.532 156.918 70.9508 157.682 68.3989 158.784C65.8579 159.896 62.3482 161.367 58.7098 163.353C56.8911 164.352 55.2068 165.387 53.7424 166.409C52.2591 167.444 50.9866 168.377 50.1161 169.309C49.2346 170.233 48.7501 171.106 48.5161 171.773C48.2821 172.44 48.2169 172.889 48.019 172.919C47.8618 172.955 47.5578 172.533 47.5079 171.644C47.4481 170.755 47.7978 169.444 48.6649 168.18C49.519 166.887 50.834 165.679 52.3032 164.505C53.7903 163.309 55.5411 162.136 57.4553 161.088C61.3025 158.98 65.0672 157.745 67.8117 157.055C70.5661 156.364 72.3311 156.225 72.4261 156.567Z" fill="#A56B60"/>
<path d="M59.4343 203.866L72.9051 239.531C97.3285 238.033 112.073 232.269 126.688 223.934L119.267 187.567C101.039 200.127 60.5949 207.488 59.4343 203.866Z" fill="#BF855F"/>
<path d="M108.664 221.027C111.882 214.919 109.54 207.358 103.432 204.14C97.3236 200.922 89.7634 203.265 86.5453 209.373C83.3271 215.481 85.6698 223.041 91.7778 226.259C97.8857 229.477 105.446 227.134 108.664 221.027Z" fill="white"/>
<path d="M99.9821 224.929C101.997 224.484 103.556 222.799 104.391 220.925C105.226 219.041 105.457 216.957 105.681 214.904C105.801 213.807 105.922 212.719 106.032 211.622C106.089 211.084 106.143 210.526 105.98 210.009C105.804 209.464 105.398 209.033 104.996 208.631C104.372 208.031 103.672 207.469 102.842 207.211C101.13 206.681 99.2354 207.627 98.1097 209.017C96.9851 210.417 96.4708 212.188 95.9715 213.907C95.6732 214.933 95.3849 215.957 95.0867 216.982C94.8122 217.945 94.5308 218.938 94.6216 219.934C94.7255 221.059 95.3019 222.086 95.9299 223.028C96.4513 223.809 97.0622 224.582 97.9144 224.958C98.7766 225.333 99.9346 225.155 100.404 224.334" fill="#90452C"/>
<path d="M98.4231 225.117C98.0718 225.123 97.7471 224 97.9131 222.264C98.0901 220.538 98.56 218.329 99.2058 215.871C100.51 210.985 102.134 207.172 102.827 207.363C103.519 207.545 103.021 211.656 101.717 216.552C101.079 218.989 100.307 221.188 99.7047 222.686C99.1204 224.162 98.7942 225.11 98.4231 225.117Z" fill="#723220"/>
<path d="M103.088 221.75C103.507 219.738 102.62 217.627 101.248 216.087C99.8758 214.547 98.0695 213.484 96.295 212.437C95.3441 211.88 94.3931 211.323 93.4521 210.765C92.9821 210.491 92.5012 210.208 91.9628 210.152C91.3936 210.089 90.8296 210.277 90.3085 210.49C89.5069 210.813 88.7034 211.216 88.136 211.866C86.9556 213.212 87.0288 215.325 87.8437 216.921C88.6586 218.517 90.0571 219.723 91.4307 220.88C92.2445 221.572 93.0573 222.253 93.8711 222.945C94.6301 223.592 95.421 224.255 96.3687 224.582C97.4408 224.945 98.6068 224.847 99.724 224.664C100.643 224.511 101.604 224.273 102.294 223.64C102.984 223.007 103.301 221.87 102.753 221.121" fill="#90452C"/>
<path d="M102.616 223.246C102.478 223.571 101.325 223.406 99.8 222.536C98.2944 221.663 96.4808 220.329 94.5097 218.729C90.5873 215.528 87.7865 212.484 88.2426 211.926C88.6986 211.367 92.2426 213.511 96.155 216.713C98.1142 218.294 99.8047 219.902 100.918 221.065C102.031 222.229 102.764 222.919 102.616 223.246Z" fill="#723220"/>
<path d="M74.1567 228.067C73.4545 228.278 70.023 218.906 65.6357 207.44C61.2674 195.962 57.5644 186.687 58.2366 186.378C58.8701 186.083 63.6562 194.936 68.0645 206.511C72.4917 218.074 74.8301 227.868 74.1567 228.067Z" fill="white"/>
<path d="M85.3044 252.599C84.6979 252.961 81.8197 249.253 79.5365 243.976C77.2345 238.711 76.4935 234.072 77.1679 233.883C77.8701 233.671 79.7002 237.848 81.9244 242.94C84.1396 248.043 85.9398 252.223 85.3044 252.599Z" fill="white"/>
<path d="M125.683 223.242C125.853 223.536 124.052 225.005 120.838 226.909C117.623 228.812 112.958 231.084 107.559 232.957C102.159 234.82 97.0841 235.917 93.3851 236.412C89.6762 236.908 87.3498 236.862 87.3056 236.525C87.1982 235.762 96.1844 234.179 106.707 230.5C117.256 226.879 125.294 222.578 125.683 223.242Z" fill="#A57959"/>
<path d="M82.2371 193.808C81.8921 193.974 81.2402 193.095 80.0669 192.129C79.4762 191.656 78.7443 191.177 77.8932 190.911C77.0411 190.636 76.039 190.566 75.1637 190.856C73.3624 191.43 72.2176 193.426 71.4432 194.811C71.2565 195.151 71.0788 195.481 70.9091 195.79C70.8247 195.949 70.7542 196.047 70.7025 196.132C70.6519 196.228 70.6102 196.312 70.5775 196.386C70.512 196.533 70.4583 196.599 70.4385 196.702C70.4178 196.794 70.4686 196.9 70.4478 196.992C70.436 197.074 70.3356 197.174 70.1196 197.126C69.8937 197.078 69.6536 196.791 69.5606 196.469C69.5137 196.303 69.4856 196.125 69.4764 195.935C69.4761 195.734 69.5057 195.53 69.5195 195.367C69.5539 195.012 69.624 194.613 69.721 194.181C69.9339 193.305 70.2699 192.256 70.9531 191.162C71.6185 190.089 72.7564 188.919 74.3518 188.395C75.9581 187.881 77.5624 188.141 78.7741 188.691C80.0176 189.259 80.8783 190.117 81.4296 190.895C82.5151 192.484 82.5365 193.688 82.2371 193.808Z" fill="#442C41"/>
<path d="M107.623 184.846C107.314 185.068 106.56 184.371 105.495 183.483C104.96 183.055 104.324 182.637 103.655 182.484C103.025 182.316 102.211 182.419 101.351 182.757C99.6505 183.432 98.4931 184.906 97.8865 186.063C97.2611 187.232 97.104 188.162 96.716 188.202C96.3996 188.254 95.8362 187.255 96.1316 185.507C96.2868 184.657 96.6577 183.654 97.356 182.709C98.0444 181.765 99.0702 180.877 100.384 180.352C101.659 179.841 103.152 179.7 104.431 180.214C105.678 180.721 106.399 181.583 106.869 182.259C107.766 183.675 107.906 184.656 107.623 184.846Z" fill="#442C41"/>
<g opacity="0.51">
<path opacity="0.51" d="M76.6503 198.093C76.9736 197.216 76.6827 196.13 75.9317 195.563C75.1818 195.005 74.0117 195.063 73.3548 195.723C72.6064 196.472 72.6758 197.852 73.4439 198.589C74.212 199.325 75.5215 199.353 76.3824 198.723" fill="#FF5076"/>
</g>
<g opacity="0.51">
<path opacity="0.51" d="M107.101 188.226C107.425 187.349 107.134 186.262 106.383 185.695C105.633 185.138 104.463 185.196 103.806 185.856C103.057 186.605 103.127 187.985 103.895 188.721C104.663 189.457 105.972 189.486 106.833 188.856" fill="#FF5076"/>
</g>
<path d="M92.1116 187.894C92.4339 187.801 93.0545 188.371 93.5934 189.724C93.842 190.392 94.0482 191.336 93.8575 192.431C93.7616 192.973 93.5504 193.568 93.164 194.119C92.7786 194.681 92.2021 195.142 91.5686 195.437C90.9242 195.723 90.2427 195.842 89.574 195.79C88.9063 195.747 88.2472 195.492 87.7842 195.187C86.868 194.576 86.3378 193.906 85.9359 193.213C85.555 192.528 85.4467 191.855 85.5118 191.406C85.5769 190.958 85.7657 190.737 85.9369 190.74C86.311 190.763 86.5706 191.44 87.4013 192.1C87.7857 192.423 88.3912 192.844 88.9488 193.089C89.2315 193.201 89.4365 193.24 89.6972 193.234C89.9579 193.228 90.2335 193.17 90.493 193.053C91.4806 192.682 91.8162 191.231 91.7799 190.078C91.7705 188.893 91.7505 188.001 92.1116 187.894Z" fill="#442C41"/>
<path d="M61.2184 209.576C61.3382 209.865 60.1432 210.77 57.8155 211.307C57.2356 211.436 56.5939 211.552 55.8934 211.582C55.198 211.663 54.4497 211.618 53.6626 211.587C52.0912 211.455 50.3863 211.095 48.681 210.433C46.9926 209.74 45.5018 208.815 44.2767 207.833C43.6811 207.311 43.1193 206.825 42.6629 206.288C42.1797 205.784 41.7949 205.26 41.463 204.761C40.1461 202.774 39.9055 201.29 40.1949 201.171C40.5489 200.994 41.3662 202.118 42.8825 203.592C43.261 203.956 43.6735 204.357 44.1645 204.739C44.6187 205.155 45.1674 205.512 45.7212 205.918C46.8634 206.677 48.1847 207.418 49.6522 208.013C51.1275 208.587 52.5827 208.963 53.9442 209.207C54.6259 209.288 55.2719 209.414 55.8858 209.422C56.5058 209.49 57.0779 209.482 57.6003 209.48C59.7177 209.446 61.0796 209.198 61.2184 209.576Z" fill="#442C41"/>
<path d="M102.319 283.854C102.108 283.553 102.165 283.125 102.309 282.659C102.461 282.181 102.691 281.665 102.977 281.113C103.252 280.563 103.543 280.061 103.834 279.66C104.127 279.268 104.448 278.964 104.81 278.968C105.161 278.963 105.508 279.309 105.651 279.928C105.804 280.546 105.723 281.438 105.286 282.287C104.85 283.135 104.176 283.726 103.587 283.967C102.999 284.217 102.519 284.135 102.319 283.854Z" fill="#442C41"/>
<path d="M128.927 276.335C128.787 277.033 127.409 277.323 126.063 276.535C124.716 275.746 124.308 274.391 124.845 273.934C125.389 273.457 126.423 273.744 127.383 274.29C128.325 274.858 129.077 275.627 128.927 276.335Z" fill="#442C41"/>
<path d="M126.448 255.519C126.579 255.626 126.378 256.22 125.682 257.084C124.995 257.948 123.797 259.024 122.198 260.101C119.037 262.24 114.304 264.729 108.685 266.414C103.079 268.127 97.7602 268.706 93.9482 268.68C90.1272 268.664 87.7952 268.167 87.8117 267.833C87.8227 267.048 97.1624 267.269 107.93 263.917C113.314 262.297 117.954 260.178 121.262 258.507C122.907 257.677 124.148 256.928 124.993 256.34C125.829 255.763 126.295 255.404 126.448 255.519Z" fill="#C6BEB5"/>
<path d="M124.389 244.712C125.045 244.444 126.306 245.975 126.797 248.247C127.208 250.125 126.944 251.78 126.43 252.264L125.722 252.316C125.83 252.194 125.944 252.133 126.065 252.131C126.184 252.118 126.309 252.166 126.431 252.274L125.723 252.326C125.148 251.912 124.623 250.497 124.251 248.806C123.813 246.77 123.712 244.981 124.389 244.712Z" fill="#C6BEB5"/>
<path d="M126.185 223.141C126.342 223.004 126.858 223.535 127.984 223.833C129.101 224.142 130.83 224.048 132.524 222.811C134.221 221.604 135.9 219.524 136.881 216.902C137.883 214.288 138.219 211.057 137.42 207.932C136.64 204.795 134.754 202.242 132.457 200.605C130.169 198.957 127.652 198.116 125.51 197.81C123.349 197.506 121.557 197.678 120.321 197.883C119.696 197.966 119.215 198.076 118.879 198.13C118.541 198.174 118.339 198.164 118.301 198.078C118.263 198.001 118.388 197.848 118.678 197.637C118.968 197.427 119.413 197.151 120.041 196.906C121.275 196.379 123.224 195.881 125.676 195.974C128.108 196.07 131.057 196.806 133.825 198.627C135.203 199.533 136.511 200.737 137.584 202.206C138.658 203.676 139.467 205.413 139.947 207.274C140.897 210.997 140.415 214.775 139.112 217.792C137.801 220.829 135.71 223.101 133.505 224.36C132.394 224.995 131.231 225.324 130.178 225.35C129.125 225.376 128.253 225.103 127.616 224.765C126.318 224.052 126.061 223.204 126.185 223.141Z" fill="#442C41"/>
<path d="M34.3475 83.9053C34.6254 87.4484 33.8711 90.3772 32.0845 92.6919C30.31 94.9885 27.6387 96.4886 24.0705 97.192C20.2024 97.9545 16.8256 97.1794 13.94 94.8669C11.0695 92.5513 9.17608 89.0697 8.25991 84.4221L7.63928 81.2737C7.03933 78.2302 7.05152 75.4476 7.67584 72.926C8.31516 70.4014 9.51065 68.3279 11.2623 66.7055C13.011 65.068 15.1972 63.9907 17.8209 63.4735C21.2991 62.7879 24.2798 63.2127 26.763 64.7479C29.2432 66.2682 30.9941 68.711 32.0157 72.0763L27.6754 72.9319C26.7863 70.3971 25.5968 68.6691 24.107 67.7479C22.6321 66.8238 20.7702 66.5834 18.5213 67.0267C15.7627 67.5705 13.7972 69.0171 12.625 71.3664C11.4677 73.7127 11.26 76.7674 12.0018 80.5305L12.6268 83.7014C13.3273 87.2546 14.6265 89.9344 16.5245 91.7408C18.4225 93.5472 20.7058 94.1873 23.3745 93.6612C25.7733 93.1884 27.5035 92.2866 28.565 90.9559C29.6386 89.6073 30.1194 87.5423 30.0072 84.7609L34.3475 83.9053ZM38.1134 81.0837C37.6435 78.6999 37.6856 76.4644 38.2398 74.3771C38.809 72.2869 39.8237 70.5605 41.2839 69.198C42.7592 67.8325 44.5688 66.9384 46.7127 66.5158C50.026 65.8627 52.9283 66.482 55.4194 68.374C57.9255 70.2629 59.554 73.1114 60.3046 76.9195L60.3623 77.2119C60.8292 79.5807 60.7916 81.7998 60.2494 83.8691C59.7193 85.9205 58.7106 87.6379 57.2234 89.0213C55.7511 90.4018 53.9205 91.3078 51.7316 91.7393C48.4332 92.3894 45.531 91.7701 43.0249 89.8811C40.5337 87.9892 38.9158 85.1542 38.171 81.3761L38.1134 81.0837ZM42.3938 80.7539C42.9258 83.4526 43.975 85.4963 45.5415 86.8852C47.123 88.2711 48.9632 88.7572 51.0622 88.3435C53.1761 87.9267 54.6927 86.7712 55.612 84.8767C56.5283 82.9672 56.6924 80.5207 56.1043 77.5372C55.5783 74.8686 54.5155 72.8353 52.916 71.4373C51.3286 70.0214 49.4854 69.5203 47.3865 69.9341C45.3325 70.339 43.8369 71.4826 42.8997 73.3651C41.9625 75.2475 41.7938 77.7104 42.3938 80.7539ZM69.9712 87.6765L65.8085 66.5596L61.963 67.3177L61.329 64.1018L65.1746 63.3437L64.6825 60.8475C64.1683 58.2388 64.4679 56.0849 65.5815 54.3857C66.695 52.6866 68.5261 51.5858 71.0749 51.0834C72.0344 50.8943 73.0115 50.834 74.0063 50.9027L74.4464 54.3204C73.7151 54.3243 72.9522 54.4046 72.1576 54.5613C70.8083 54.8273 69.8446 55.43 69.2666 56.3694C68.6857 57.2938 68.54 58.4906 68.8296 59.9599L69.335 62.5236L74.5299 61.4996L75.1638 64.7154L69.9689 65.7395L74.1316 86.8564L69.9712 87.6765ZM85.9832 84.5201L81.8205 63.4032L77.9749 64.1613L77.341 60.9454L81.1866 60.1874L80.6945 57.6911C80.1802 55.0824 80.4799 52.9285 81.5934 51.2294C82.707 49.5302 84.5381 48.4295 87.0868 47.927C88.0463 47.7379 89.0235 47.6777 90.0182 47.7464L90.4583 51.164C89.7271 51.168 88.9642 51.2483 88.1696 51.4049C86.8202 51.6709 85.8566 52.2736 85.2786 53.213C84.6976 54.1374 84.552 55.3343 84.8416 56.8035L85.347 59.3672L90.5419 58.3432L91.1758 61.5591L85.9809 62.5831L90.1436 83.7L85.9832 84.5201ZM109.595 80.3329C106.297 80.9831 103.4 80.4326 100.906 78.6816C98.4082 76.9155 96.8018 74.2184 96.0866 70.5902L95.9359 69.8256C95.4601 67.4118 95.4933 65.1702 96.0354 63.1009C96.5896 61.0136 97.5864 59.2752 99.0257 57.8857C100.477 56.4782 102.17 55.5838 104.104 55.2025C107.267 54.5789 109.931 55.1362 112.096 56.8744C114.261 58.6126 115.726 61.4232 116.492 65.3062L116.833 67.0379L100.349 70.2873C100.882 72.6743 101.962 74.4784 103.589 75.6996C105.228 76.9029 107.082 77.3006 109.151 76.8928C110.62 76.6031 111.805 76.058 112.706 75.2573C113.608 74.4567 114.343 73.4862 114.913 72.346L117.844 73.824C116.423 77.3594 113.673 79.529 109.595 80.3329ZM104.778 58.6208C103.099 58.9518 101.81 59.8443 100.913 61.2983C100.013 62.7373 99.6455 64.5854 99.8101 66.8424L111.999 64.4397L111.937 64.1249C111.4 62.0346 110.508 60.5127 109.261 59.5592C108.011 58.5908 106.517 58.278 104.778 58.6208ZM134.018 75.5185C130.719 76.1687 127.823 75.6183 125.328 73.8672C122.831 72.1012 121.225 69.404 120.509 65.7759L120.359 65.0112C119.883 62.5975 119.916 60.3559 120.458 58.2866C121.012 56.1993 122.009 54.4609 123.448 53.0713C124.9 51.6638 126.593 50.7694 128.527 50.3882C131.69 49.7646 134.354 50.3219 136.519 52.0601C138.684 53.7982 140.149 56.6088 140.915 60.4919L141.256 62.2235L124.772 65.473C125.305 67.8599 126.384 69.664 128.011 70.8853C129.65 72.0885 131.504 72.4863 133.573 72.0784C135.042 71.7888 136.228 71.2436 137.129 70.443C138.03 69.6423 138.766 68.6719 139.335 67.5316L142.267 69.0097C140.845 72.5451 138.096 74.7147 134.018 75.5185ZM129.2 53.8065C127.521 54.1375 126.233 55.03 125.336 56.484C124.436 57.923 124.068 59.771 124.233 62.0281L136.422 59.6254L136.36 59.3105C135.823 57.2202 134.931 55.6983 133.684 54.7449C132.434 53.7764 130.94 53.4636 129.2 53.8065Z" fill="#503B36"/>
<path d="M115.083 98.8312C115.25 100.964 114.796 102.728 113.72 104.122C112.652 105.504 111.043 106.408 108.895 106.831C106.566 107.29 104.533 106.824 102.795 105.431C101.067 104.037 99.9268 101.941 99.3751 99.1423L99.0015 97.2466C98.6402 95.4142 98.6476 93.7388 99.0235 92.2205C99.4084 90.7004 100.128 89.4519 101.183 88.4751C102.236 87.4891 103.552 86.8405 105.132 86.5291C107.226 86.1162 109.021 86.372 110.516 87.2964C112.009 88.2118 113.064 89.6826 113.679 91.7089L111.065 92.224C110.53 90.6978 109.814 89.6574 108.917 89.1027C108.029 88.5463 106.908 88.4016 105.554 88.6685C103.893 88.9959 102.709 89.8669 102.003 91.2814C101.307 92.6941 101.181 94.5334 101.628 96.7992L102.004 98.7084C102.426 100.848 103.208 102.461 104.351 103.549C105.494 104.637 106.869 105.022 108.476 104.705C109.92 104.421 110.962 103.878 111.601 103.076C112.247 102.264 112.537 101.021 112.469 99.3463L115.083 98.8312ZM128.244 101.23C127.495 102.569 126.177 103.424 124.29 103.796C122.729 104.104 121.448 103.888 120.449 103.147C119.457 102.395 118.781 101.131 118.421 99.3547L116.542 89.8221L119.047 89.3283L120.913 98.7932C121.351 101.014 122.472 101.946 124.278 101.59C126.191 101.213 127.324 100.249 127.674 98.6982L125.574 88.0418L128.079 87.548L130.967 102.199L128.584 102.669L128.244 101.23ZM145.749 91.8436C146.189 94.0732 146.033 95.9702 145.281 97.5343C144.53 99.0985 143.283 100.052 141.541 100.396C139.763 100.746 138.252 100.458 137.01 99.5306L138.401 106.585L135.896 107.079L131.897 86.7953L134.185 86.3442L134.628 87.945C135.399 86.4801 136.691 85.5689 138.506 85.2112C140.266 84.8642 141.787 85.2537 143.069 86.3796C144.359 87.5037 145.238 89.2483 145.704 91.6134L145.749 91.8436ZM143.188 92.053C142.863 90.4011 142.253 89.166 141.361 88.348C140.468 87.5299 139.408 87.2419 138.18 87.4839C136.663 87.7828 135.659 88.6796 135.165 90.1741L136.545 97.1745C137.558 98.3628 138.836 98.8049 140.38 98.5006C141.58 98.2639 142.439 97.6022 142.957 96.5156C143.481 95.4182 143.558 93.9306 143.188 92.053Z" fill="#E38B32"/>
<path d="M115.959 35.8521C117.559 35.0221 118.499 33.2421 118.779 31.4621C119.059 29.6821 118.789 27.8621 118.509 26.0821C118.359 25.1321 118.209 24.1821 118.069 23.2221C117.999 22.7521 117.919 22.2721 117.659 21.8721C117.389 21.4521 116.949 21.1721 116.509 20.9321C115.849 20.5621 115.129 20.2521 114.369 20.2221C112.799 20.1621 111.409 21.3821 110.779 22.8221C110.149 24.2621 110.109 25.8721 110.079 27.4421C110.059 28.3721 110.049 29.3121 110.029 30.2421C110.009 31.1221 109.999 32.0221 110.309 32.8421C110.649 33.7721 111.369 34.5121 112.109 35.1621C112.729 35.7021 113.419 36.2221 114.229 36.3421C115.039 36.4621 115.989 36.0421 116.189 35.2521" fill="#90452C"/>
<path d="M114.679 36.3621C114.339 36.4621 113.769 35.5821 113.489 34.0621C113.219 32.5521 113.099 30.5821 113.089 28.3621C113.089 23.9321 113.669 20.3421 114.389 20.3421C115.109 20.3421 115.689 23.9321 115.689 28.3621C115.699 30.5621 115.529 32.6121 115.329 34.0021C115.129 35.3921 115.029 36.2721 114.679 36.3621Z" fill="#723220"/>
<path d="M132.419 44.8021C134.119 45.4121 136.059 44.9021 137.559 43.9021C139.059 42.9021 140.209 41.4621 141.329 40.0521C141.929 39.3021 142.529 38.5421 143.129 37.7921C143.419 37.4221 143.729 37.0321 143.849 36.5721C143.969 36.0921 143.879 35.5821 143.759 35.0921C143.579 34.3521 143.329 33.6121 142.829 33.0321C141.809 31.8421 139.969 31.6521 138.479 32.1521C136.989 32.6621 135.779 33.7321 134.609 34.7721C133.909 35.3921 133.219 36.0121 132.519 36.6321C131.859 37.2121 131.189 37.8221 130.799 38.6021C130.349 39.4821 130.289 40.5121 130.319 41.5021C130.339 42.3221 130.429 43.1821 130.889 43.8621C131.349 44.5421 132.299 44.9521 133.019 44.5721" fill="#90452C"/>
<path d="M131.179 44.2121C130.879 44.0221 131.129 43.0121 132.059 41.7821C132.989 40.5521 134.349 39.1321 135.979 37.6221C139.239 34.6121 142.269 32.6121 142.759 33.1421C143.249 33.6721 140.999 36.5321 137.749 39.5421C136.139 41.0421 134.519 42.3021 133.359 43.1021C132.209 43.8821 131.489 44.4021 131.179 44.2121Z" fill="#723220"/>
</svg>
